<?xml version="1.0" encoding="UTF-8"?>
<svg version="1.1" xmlns="http://www.w3.org/2000/svg" width="281" height="212">
<path d="M0 0 C92.73 0 185.46 0 281 0 C281 69.96 281 139.92 281 212 C188.27 212 95.54 212 0 212 C0 142.04 0 72.08 0 0 Z " fill="#FBFBFB" transform="translate(0,0)"/>
<path d="M0 0 C1.9375 1.6875 1.9375 1.6875 3 4 C2.92748417 6.97314921 2.59039448 8.40809169 0.4765625 10.52734375 C-3.03246849 12.6139442 -6.58607712 13.21685216 -10.5625 14 C-12.18138589 14.33926019 -13.79987828 14.68040362 -15.41796875 15.0234375 C-16.59431885 15.2704541 -16.59431885 15.2704541 -17.79443359 15.52246094 C-25.59284131 17.10263257 -25.59284131 17.10263257 -32.9375 20.0234375 C-36.30071893 21.61587071 -39.88459873 21.88884056 -43.5390625 22.4375 C-46.16204875 22.80753666 -46.16204875 22.80753666 -48 25 C-48.2500773 27.54190002 -48.2500773 27.54190002 -48 30 C-47.67 30.33 -47.34 30.66 -47 31 C-45.26812329 30.96164498 -43.5377633 30.84349547 -41.8125 30.6875 C-40.39904297 30.56955078 -40.39904297 30.56955078 -38.95703125 30.44921875 C-35.96044342 30.08215608 -35.96044342 30.08215608 -33.05859375 29.00390625 C-29.73296541 27.91235263 -26.73518377 27.52303283 -23.25 27.25 C-21.55617187 27.10304688 -21.55617187 27.10304688 -19.828125 26.953125 C-17 27 -17 27 -15 29 C-14.875 32.625 -14.875 32.625 -15 36 C-19.18125363 38.04416844 -22.89644482 39.25073171 -27.5 40 C-32.06639412 40.75072512 -35.76085081 42.10752268 -40 44 C-43.6438073 45.09066341 -47.31463669 46.06033232 -51 47 C-51.08226668 50.04386724 -50.97608217 52.07175348 -50 55 C-45.85724866 54.13462527 -41.80891407 53.28549908 -37.8125 51.875 C-34.69319085 50.90454827 -32.24805027 50.7047227 -29 51 C-27 53 -27 53 -26.75 55.9375 C-27 59 -27 59 -29 62 C-31.3984375 62.84375 -31.3984375 62.84375 -34.375 63.5 C-35.43976563 63.74363281 -36.50453125 63.98726562 -37.6015625 64.23828125 C-38.72304687 64.48964844 -39.84453125 64.74101563 -41 65 C-43.25148687 65.55651876 -45.50157956 66.11871906 -47.75 66.6875 C-49.5 67.125 -51.25 67.5625 -53 68 C-54.01540112 72.10223585 -54.01540112 72.10223585 -53 76 C-50.93690624 75.88521587 -48.87451646 75.75773802 -46.8125 75.625 C-45.08966797 75.52058594 -45.08966797 75.52058594 -43.33203125 75.4140625 C-40.13058918 75.01622796 -37.94921563 74.23590428 -35 73 C-32.29451328 72.31671245 -29.59677115 71.67136894 -26.875 71.0625 C-15.60884663 68.91508017 -15.60884663 68.91508017 -4.99609375 64.9296875 C-2.64809074 63.83609706 -0.95416126 63.73274809 1.625 63.75 C2.40101563 63.74484375 3.17703125 63.7396875 3.9765625 63.734375 C6 64 6 64 8 66 C8.4375 68.375 8.4375 68.375 8 71 C4.28942004 74.66147966 0.60125237 75.93603648 -4.375 77 C-5.80366348 77.33083277 -7.23204293 77.6628941 -8.66015625 77.99609375 C-9.38219238 78.16093262 -10.10422852 78.32577148 -10.84814453 78.49560547 C-14.19021277 79.27898566 -17.49775193 80.17019832 -20.8125 81.0625 C-22.0396875 81.39121094 -23.266875 81.71992187 -24.53125 82.05859375 C-26.70003584 82.64719441 -28.86703715 83.24245755 -31.03125 83.84765625 C-36.26165611 85.30952537 -41.46989727 86.56765781 -46.80859375 87.5703125 C-47.89333984 87.78300781 -47.89333984 87.78300781 -49 88 C-50.06927734 88.11988281 -50.06927734 88.11988281 -51.16015625 88.2421875 C-53.22988627 88.84780985 -53.22988627 88.84780985 -53.96875 91.1640625 C-54.3090625 92.09992188 -54.649375 93.03578125 -55 94 C-61.26368082 103.51597663 -68.31996412 111.3631943 -79 116 C-79.99 116 -80.98 116 -82 116 C-82.33 116.99 -82.66 117.98 -83 119 C-89.65263252 122.31088092 -96.86230911 122.38640797 -104.125 122.1875 C-105.08148438 122.17396484 -106.03796875 122.16042969 -107.0234375 122.14648438 C-109.3495811 122.11159222 -111.6744653 122.06258339 -114 122 C-114 121.34 -114 120.68 -114 120 C-115.134375 120.0825 -116.26875 120.165 -117.4375 120.25 C-123.44365548 120.26064921 -128.57144885 117.74204894 -133.390625 114.28515625 C-136.8542976 112.57924564 -138.40142928 113.1793523 -142.0625 114.25 C-148.39298384 115.93379307 -154.47078561 116.65883384 -161 117 C-161 117.66 -161 118.32 -161 119 C-162.72807318 119.33895656 -164.45751974 119.67091525 -166.1875 120 C-167.15042969 120.185625 -168.11335938 120.37125 -169.10546875 120.5625 C-171.84726192 120.97691408 -174.24151627 121.30491012 -177 121 C-179.1519437 117.77208445 -179.20086443 116.71599191 -179 113 C-170.96028641 108.97810163 -162.96220828 106.40151988 -154.25 104.25 C-152.48076172 103.79560547 -152.48076172 103.79560547 -150.67578125 103.33203125 C-138.47722239 100.24465696 -138.47722239 100.24465696 -134 100 C-131 102.25 -131 102.25 -129.52734375 103.66015625 C-120.62065633 111.47343959 -106.48119469 110.79254646 -95.47705078 110.23828125 C-83.79787463 109.11479653 -73.8768434 100.96295503 -66.5703125 92.24609375 C-58.51714681 80.72726224 -57.83025358 67.73501459 -59.30859375 54.16796875 C-60.21288259 49.59850923 -61.94385174 45.69632623 -64.1953125 41.62890625 C-65 40 -65 40 -65 38 C-63.02 37.01 -61.04 36.02 -59 35 C-58.83312552 32.58354218 -58.83312552 32.58354218 -59 30 C-59.99 29.01 -59.99 29.01 -61 28 C-64.39573388 28.32651287 -67.60255401 28.89796749 -70.90625 29.74609375 C-74.85640947 30.07028613 -76.09869294 29.07102256 -79.25 26.75 C-87.20048761 20.91964242 -95.69215203 19.42830839 -105.375 19.5 C-106.7513562 19.50966797 -106.7513562 19.50966797 -108.15551758 19.51953125 C-120.26586707 19.8448999 -129.40913181 24.49846493 -138 33 C-146.29867784 42.73223063 -149.69268253 52.35348168 -149.5 65.0625 C-149.51546875 66.08666016 -149.5309375 67.11082031 -149.546875 68.16601562 C-149.51159187 75.06827785 -148.14239019 79.91416456 -145 86 C-144.30200581 87.98928343 -143.61998741 89.98504093 -143 92 C-151.0420989 95.11234919 -159.14678424 97.50146034 -167.5 99.625 C-168.64597656 99.9240625 -169.79195313 100.223125 -170.97265625 100.53125 C-177.15619794 102.12110258 -183.31089073 103.45633562 -189.6015625 104.53955078 C-192.74793356 105.14358741 -195.72172605 106.08739344 -198.75 107.125 C-203.39929745 108.60105519 -207.14806892 109.75474483 -212 109 C-214 106 -214 106 -213.75 102.9375 C-213 100 -213 100 -211 98 C-207.375 97.875 -207.375 97.875 -204 98 C-203.67 95.36 -203.34 92.72 -203 90 C-210.34761774 88.06641638 -217.1584743 90.37827946 -224.1875 92.625 C-228.34654244 93.91528561 -231.65994684 94.45208887 -236 94 C-238 92 -238 92 -238.25 89 C-238 86 -238 86 -236 84 C-234.14453125 83.2890625 -234.14453125 83.2890625 -231.8125 82.625 C-230.92304688 82.37105469 -230.03359375 82.11710937 -229.1171875 81.85546875 C-228.08851563 81.57316406 -227.05984375 81.29085937 -226 81 C-224.78570312 80.66613281 -223.57140625 80.33226563 -222.3203125 79.98828125 C-216.28668652 78.34795362 -210.25369256 76.74346223 -204.125 75.4921875 C-202.31762455 75.07356745 -200.52879914 74.5761246 -198.74609375 74.0625 C-194.87522227 72.96460945 -190.98217677 72.02643858 -187.0625 71.125 C-185.57280136 70.77523031 -184.08322105 70.42495636 -182.59375 70.07421875 C-180.29321075 69.53392572 -177.99201622 68.9981878 -175.6875 68.47509766 C-173.47659903 67.97300735 -171.26949141 67.45646512 -169.0625 66.9375 C-168.3826001 66.78748535 -167.7027002 66.6374707 -167.00219727 66.48291016 C-162.73789125 65.46571365 -162.73789125 65.46571365 -160 62 C-159.83286431 59.37468476 -159.83286431 59.37468476 -160 57 C-164.14658066 55.85780811 -166.88706265 56.22547184 -171.0078125 57.36328125 C-172.73644531 57.82831055 -172.73644531 57.82831055 -174.5 58.30273438 C-175.69625 58.63595703 -176.8925 58.96917969 -178.125 59.3125 C-185.61768353 61.36681268 -193.00249598 63.32773677 -200.69091797 64.49682617 C-203.06567551 65.0143114 -204.84697389 65.90007843 -207 67 C-212.16743756 67.52728955 -212.16743756 67.52728955 -214.875 65.8125 C-216.45090926 63.27353509 -216.57287294 61.93597381 -216 59 C-211.52310353 54.10551883 -205.51960105 53.34081169 -199.3125 51.9375 C-197.2247183 51.44892539 -195.13747097 50.95806132 -193.05078125 50.46484375 C-192.03628906 50.22725342 -191.02179688 49.98966309 -189.9765625 49.74487305 C-186.33572425 48.83376761 -182.77253425 47.73807849 -179.20629883 46.57128906 C-175.73662292 45.67286684 -172.56445797 45.80197456 -169 46 C-169 45.34 -169 44.68 -169 44 C-167.23050388 43.49528803 -165.45934777 42.99639315 -163.6875 42.5 C-162.70136719 42.2215625 -161.71523437 41.943125 -160.69921875 41.65625 C-158 41 -158 41 -155 41 C-154.731875 40.27425781 -154.46375 39.54851563 -154.1875 38.80078125 C-153.01329619 36.03135976 -151.6605676 33.69080566 -150 31.1875 C-149.484375 30.39730469 -148.96875 29.60710938 -148.4375 28.79296875 C-147.963125 28.20128906 -147.48875 27.60960938 -147 27 C-146.34 27 -145.68 27 -145 27 C-144.505 25.515 -144.505 25.515 -144 24 C-143.34 24 -142.68 24 -142 24 C-142 23.34 -142 22.68 -142 22 C-131.03232629 12.19479862 -117.46061689 7.82635117 -103 7.8125 C-102.32710937 7.80025391 -101.65421875 7.78800781 -100.9609375 7.77539062 C-96.230575 7.76169266 -92.44054298 8.53716488 -88 10 C-88 10.66 -88 11.32 -88 12 C-86.948125 12.12375 -85.89625 12.2475 -84.8125 12.375 C-81.54041229 12.91140782 -78.99463924 13.63880035 -76 15 C-76 15.66 -76 16.32 -76 17 C-70.81216398 18.21417439 -67.92569118 17.75010124 -62.83032227 15.95581055 C-57.46090921 14.14253942 -51.9843756 12.67549767 -46.52807617 11.14819336 C-44.46503249 10.57021347 -42.40336667 9.98750898 -40.34179688 9.40429688 C-32.09880475 7.08360231 -23.83103451 4.92569533 -15.50805664 2.90991211 C-13.23081175 2.31924528 -10.9708591 1.6554116 -8.73999023 0.90844727 C-5.5859855 -0.13726704 -3.29823575 -0.43976477 0 0 Z " fill="#19191B" transform="translate(246,23)"/>
<path d="M0 0 C2.70163937 4.05245906 2.41398656 7.84370251 2.56640625 12.55078125 C2.73213231 16.20396003 2.92011356 17.88017034 5 21 C5.495 21.99 5.495 21.99 6 23 C8.06309376 22.88521587 10.12548354 22.75773802 12.1875 22.625 C13.33605469 22.55539063 14.48460937 22.48578125 15.66796875 22.4140625 C18.86941082 22.01622796 21.05078437 21.23590428 24 20 C26.70548672 19.31671245 29.40322885 18.67136894 32.125 18.0625 C43.39115337 15.91508017 43.39115337 15.91508017 54.00390625 11.9296875 C56.35190926 10.83609706 58.04583874 10.73274809 60.625 10.75 C61.40101563 10.74484375 62.17703125 10.7396875 62.9765625 10.734375 C65 11 65 11 67 13 C67.4375 15.375 67.4375 15.375 67 18 C63.28942004 21.66147966 59.60125237 22.93603648 54.625 24 C53.19633652 24.33083277 51.76795707 24.6628941 50.33984375 24.99609375 C49.61780762 25.16093262 48.89577148 25.32577148 48.15185547 25.49560547 C44.80978723 26.27898566 41.50224807 27.17019832 38.1875 28.0625 C36.9603125 28.39121094 35.733125 28.71992187 34.46875 29.05859375 C32.29996416 29.64719441 30.13296285 30.24245755 27.96875 30.84765625 C22.73834389 32.30952537 17.53010273 33.56765781 12.19140625 34.5703125 C11.46824219 34.71210937 10.74507812 34.85390625 10 35 C9.28714844 35.07992187 8.57429687 35.15984375 7.83984375 35.2421875 C5.77011373 35.84780985 5.77011373 35.84780985 5.03125 38.1640625 C4.6909375 39.09992188 4.350625 40.03578125 4 41 C-2.26368082 50.51597663 -9.31996412 58.3631943 -20 63 C-20.99 63 -21.98 63 -23 63 C-23.33 63.99 -23.66 64.98 -24 66 C-30.65263252 69.31088092 -37.86230911 69.38640797 -45.125 69.1875 C-46.08148438 69.17396484 -47.03796875 69.16042969 -48.0234375 69.14648438 C-50.3495811 69.11159222 -52.6744653 69.06258339 -55 69 C-55 68.34 -55 67.68 -55 67 C-56.134375 67.0825 -57.26875 67.165 -58.4375 67.25 C-64.44365548 67.26064921 -69.57144885 64.74204894 -74.390625 61.28515625 C-77.8542976 59.57924564 -79.40142928 60.1793523 -83.0625 61.25 C-89.39298384 62.93379307 -95.47078561 63.65883384 -102 64 C-102 64.66 -102 65.32 -102 66 C-103.72807318 66.33895656 -105.45751974 66.67091525 -107.1875 67 C-108.15042969 67.185625 -109.11335938 67.37125 -110.10546875 67.5625 C-112.84726192 67.97691408 -115.24151627 68.30491012 -118 68 C-120.1519437 64.77208445 -120.20086443 63.71599191 -120 60 C-111.96028641 55.97810163 -103.96220828 53.40151988 -95.25 51.25 C-94.07050781 50.94707031 -92.89101562 50.64414063 -91.67578125 50.33203125 C-79.47722239 47.24465696 -79.47722239 47.24465696 -75 47 C-72 49.25 -72 49.25 -70.52734375 50.66015625 C-61.62065633 58.47343959 -47.48119469 57.79254646 -36.47705078 57.23828125 C-24.79787463 56.11479653 -14.8768434 47.96295503 -7.5703125 39.24609375 C-2.63477355 32.1865542 0.15046859 24.52638004 0.09765625 15.91796875 C0.09443359 14.98662109 0.09121094 14.05527344 0.08789062 13.09570312 C0.07951172 12.13599609 0.07113281 11.17628906 0.0625 10.1875 C0.05798828 9.20845703 0.05347656 8.22941406 0.04882812 7.22070312 C0.03708684 4.81373889 0.02066419 2.40690143 0 0 Z " fill="#1C1C1D" transform="translate(187,76)"/>
<path d="M0 0 C3.98002368 2.65334912 6.34705589 5.47629924 7.828125 10.09375 C8.77811897 16.44483327 8.107877 21.15970408 4.30078125 26.3984375 C1.38168381 29.75888389 -1.09950925 31.80388534 -5.6015625 32.43359375 C-10.56045491 32.61752893 -14.26387795 32.4270416 -18.171875 29.09375 C-22.13528054 24.68996607 -23.31916647 21.58919566 -23.359375 15.71875 C-23.37355469 14.78289062 -23.38773437 13.84703125 -23.40234375 12.8828125 C-22.9199275 7.04475816 -20.51489369 3.90713226 -16.171875 0.09375 C-11.04370377 -1.61564041 -5.07796919 -2.11886484 0 0 Z " fill="#1B1B1C" transform="translate(139.171875,160.90625)"/>
<path d="M0 0 C3.63 0 7.26 0 11 0 C13.31 6.6 15.62 13.2 18 20 C18.969375 17.4425 19.93875 14.885 20.9375 12.25 C21.24163818 11.45110352 21.54577637 10.65220703 21.85913086 9.82910156 C22.10026611 9.1894043 22.34140137 8.54970703 22.58984375 7.890625 C22.83597412 7.24125977 23.08210449 6.59189453 23.33569336 5.92285156 C24.00534792 3.98452032 24.50262068 1.98951729 25 0 C28.63 0 32.26 0 36 0 C36 10.23 36 20.46 36 31 C33.69 31 31.38 31 29 31 C28.505 21.1 28.505 21.1 28 11 C26.06702402 17.20682726 26.06702402 17.20682726 24.14086914 23.41577148 C23.89973389 24.18477783 23.65859863 24.95378418 23.41015625 25.74609375 C23.16402588 26.53685303 22.91789551 27.3276123 22.66430664 28.14233398 C22 30 22 30 21 31 C19.00041636 31.04080783 16.99954746 31.04254356 15 31 C14.22487453 29.1893314 13.45515813 27.37634709 12.6875 25.5625 C12.25824219 24.55316406 11.82898438 23.54382813 11.38671875 22.50390625 C9.76128702 18.39682946 8.39678589 14.19035766 7 10 C6.67 16.93 6.34 23.86 6 31 C4.02 31 2.04 31 0 31 C0 20.77 0 10.54 0 0 Z " fill="#141416" transform="translate(74,161)"/>
<path d="M0 0 C5.94 0 11.88 0 18 0 C18 1.65 18 3.3 18 5 C14.37 5 10.74 5 7 5 C7 7.31 7 9.62 7 12 C7.71027344 11.98839844 8.42054688 11.97679687 9.15234375 11.96484375 C10.07144531 11.95582031 10.99054688 11.94679687 11.9375 11.9375 C12.85402344 11.92589844 13.77054688 11.91429687 14.71484375 11.90234375 C17 12 17 12 18 13 C18 14.65 18 16.3 18 18 C14.37 18 10.74 18 7 18 C7 20.31 7 22.62 7 25 C10.96 25 14.92 25 19 25 C19 27.31 19 29.62 19 32 C12.73 32 6.46 32 0 32 C0 21.44 0 10.88 0 0 Z " fill="#212123" transform="translate(197,161)"/>
<path d="M0 0 C2.64 0 5.28 0 8 0 C10.31 7.59 12.62 15.18 15 23 C16.93174938 16.17957229 16.93174938 16.17957229 18.85913086 9.35791016 C19.22083374 8.08633057 19.22083374 8.08633057 19.58984375 6.7890625 C19.83597412 5.91975098 20.08210449 5.05043945 20.33569336 4.15478516 C21 2 21 2 22 0 C24.31 0 26.62 0 29 0 C28.31775227 5.20837901 26.81748397 9.92964439 25.125 14.875 C24.86847656 15.63941406 24.61195313 16.40382812 24.34765625 17.19140625 C22.66623759 22.16806751 20.86768968 27.09032475 19 32 C16.03 32 13.06 32 10 32 C8.56991979 27.92693379 7.14592905 23.85180574 5.72753906 19.7746582 C5.24418208 18.38800757 4.75916689 17.00193379 4.27246094 15.61645508 C3.57310047 13.62470502 2.87973282 11.63095545 2.1875 9.63671875 C1.76855469 8.43748779 1.34960938 7.23825684 0.91796875 6.00268555 C0 3 0 3 0 0 Z " fill="#1D1D1F" transform="translate(149,160)"/>
<path d="M0 0 C1.125 1.8125 1.125 1.8125 1.0625 4.3125 C-0.11647447 7.45643192 -0.99321535 8.09442489 -3.875 9.8125 C-6.63919481 10.56663199 -9.32174218 11.19865607 -12.125 11.75 C-13.73609721 12.08522677 -15.34676719 12.42251253 -16.95703125 12.76171875 C-17.77252441 12.9323584 -18.58801758 13.10299805 -19.42822266 13.27880859 C-23.92762601 14.26021906 -28.38126762 15.42416943 -32.83496094 16.59350586 C-35.6132073 17.30971612 -37.98993885 17.8125 -40.875 17.8125 C-40.875 17.1525 -40.875 16.4925 -40.875 15.8125 C-40.215 15.8125 -39.555 15.8125 -38.875 15.8125 C-38.50375 14.6678125 -38.50375 14.6678125 -38.125 13.5 C-36.75369328 10.55169055 -35.6398921 9.45415468 -32.875 7.8125 C-32.215 7.8125 -31.555 7.8125 -30.875 7.8125 C-30.875 7.1525 -30.875 6.4925 -30.875 5.8125 C-24.56015151 3.83471756 -18.23895011 1.87705058 -11.875 0.0625 C-11.029375 -0.17984375 -10.18375 -0.4221875 -9.3125 -0.671875 C-5.89646554 -1.39449767 -3.02626166 -1.91663238 0 0 Z " fill="#1A1A1B" transform="translate(247.875,25.1875)"/>
<path d="M0 0 C1.18142578 0.00966797 1.18142578 0.00966797 2.38671875 0.01953125 C4.3125 0.1875 4.3125 0.1875 5.3125 1.1875 C5.35342937 3.52047433 5.35491723 5.85455225 5.3125 8.1875 C-0.64541402 10.48644017 -6.64263418 12.51103379 -12.75 14.375 C-13.60916016 14.64763672 -14.46832031 14.92027344 -15.35351562 15.20117188 C-20.29396281 16.70708358 -24.51731479 17.70519085 -29.6875 17.1875 C-31.6875 15.1875 -31.6875 15.1875 -31.9375 12.1875 C-31.6875 9.1875 -31.6875 9.1875 -29.6875 7.1875 C-27.59619141 6.53320312 -27.59619141 6.53320312 -25.0390625 5.96875 C-24.11609375 5.75863281 -23.193125 5.54851562 -22.2421875 5.33203125 C-21.27539062 5.11933594 -20.30859375 4.90664062 -19.3125 4.6875 C-17.40781187 4.26508933 -15.50411743 3.83816707 -13.6015625 3.40625 C-12.7554541 3.21998047 -11.9093457 3.03371094 -11.03759766 2.84179688 C-0.77954845 -0.01417361 -0.77954845 -0.01417361 0 0 Z " fill="#121214" transform="translate(53.6875,138.8125)"/>
<path d="M0 0 C0.66 0.66 1.32 1.32 2 2 C1.625 5.125 1.625 5.125 1 8 C0.34 8 -0.32 8 -1 8 C-1 8.66 -1 9.32 -1 10 C-1.99 10.18175781 -2.98 10.36351562 -4 10.55078125 C-12.40647167 12.04629969 -12.40647167 12.04629969 -20.5 14.6875 C-24.2801313 16.10504924 -26.99655934 16.40034407 -31 16 C-33 14 -33 14 -33.25 11 C-33 8 -33 8 -31 6 C-27.17378864 4.71667445 -23.2302463 3.83773836 -19.3125 2.875 C-18.23548828 2.59785156 -17.15847656 2.32070313 -16.04882812 2.03515625 C-5.51086801 -0.58802696 -5.51086801 -0.58802696 0 0 Z " fill="#1B1B1D" transform="translate(269,40)"/>
<path d="M0 0 C2.09375 0.4765625 2.09375 0.4765625 4.65625 2.4765625 C6.60628247 6.54619549 6.52870606 8.98201653 6.09375 13.4765625 C5.10375 14.9615625 5.10375 14.9615625 4.09375 16.4765625 C3.43375 16.4765625 2.77375 16.4765625 2.09375 16.4765625 C2.09375 17.1365625 2.09375 17.7965625 2.09375 18.4765625 C-0.75949437 19.90318469 -2.74079549 19.78690118 -5.90625 19.4765625 C-8.60615662 17.67662476 -10.4481365 16.3927895 -11.90625 13.4765625 C-12.58913206 6.53392826 -12.58913206 6.53392826 -9.96875 2.4765625 C-6.38633358 0.13702525 -4.20948817 -0.26660092 0 0 Z " fill="#1D1D1E" transform="translate(168.90625,64.5234375)"/>
<path d="M0 0 C2.09375 0.48046875 2.09375 0.48046875 4.65625 2.54296875 C6.46745672 6.24413031 6.66656686 8.3991486 6.09375 12.48046875 C3.01682692 18.01893029 3.01682692 18.01893029 0.09375 19.48046875 C-4.53245533 19.891687 -7.20528144 19.33550164 -10.90625 16.48046875 C-12.15070824 12.74709402 -12.54657725 9.3525653 -11.90625 5.48046875 C-8.73988582 0.57771132 -5.57051755 -0.34351525 0 0 Z " fill="#1B1B1D" transform="translate(120.90625,64.51953125)"/>
<path d="M0 0 C2.69990662 1.79993774 4.5418865 3.083773 6 6 C6.39447548 10.18144011 6.45035186 12.30946048 4.125 15.875 C1.18884789 18.81115211 0.38251808 18.96298212 -3.875 19.375 C-7.15225968 19.31541346 -7.81687595 19.14649924 -10.5 17 C-12.41288343 13.17423315 -12.86520829 10.19880492 -12 6 C-8.65421837 0.75827545 -6.19002146 -0.60686485 0 0 Z " fill="#1D1D1E" transform="translate(145,106)"/>
<path d="M0 0 C3.5625 0.625 3.5625 0.625 6.5 2.5 C9.41235469 6.91265862 9.29547558 10.48574595 8.5625 15.625 C7.625 18.75 7.625 18.75 5.5625 20.625 C2.39347254 21.39925103 -0.2702871 21.41394473 -3.4375 20.625 C-6.8101613 17.41685876 -7.68795812 14.58450128 -7.9375 10.0625 C-7.77192125 6.90048001 -7.3572611 5.46773176 -5.875 2.5625 C-3.4375 0.625 -3.4375 0.625 0 0 Z " fill="#F1F1F1" transform="translate(130.4375,165.375)"/>
<path d="M0 0 C2.3515625 0.4765625 2.3515625 0.4765625 4.9765625 2.4765625 C6.73382814 6.31059663 7.44326987 9.34307504 6.3515625 13.4765625 C3.27469329 17.07875084 1.415344 18.31149296 -3.2734375 19.0390625 C-7.14507816 18.39378906 -8.2991063 17.54876484 -10.6484375 14.4765625 C-12.19868214 11.37607322 -11.93835765 8.89762032 -11.6484375 5.4765625 C-9.06877587 -0.0345328 -5.62203247 -0.31509916 0 0 Z " fill="#18181A" transform="translate(120.6484375,92.5234375)"/>
<path d="M0 0 C2.3515625 0.48046875 2.3515625 0.48046875 4.9765625 2.54296875 C6.69907103 6.22287334 6.92628331 8.45742308 6.3515625 12.48046875 C4.55593845 15.23375896 3.29901328 17.00674336 0.3515625 18.48046875 C-6.78512815 19.17111623 -6.78512815 19.17111623 -10.1484375 16.48046875 C-12.0809459 12.61545194 -12.45120438 9.71634503 -11.6484375 5.48046875 C-9.11255485 -0.05236612 -5.61654731 -0.30650774 0 0 Z " fill="#1A1A1B" transform="translate(168.6484375,92.51953125)"/>
<path d="M0 0 C3.22083055 1.87393777 5.495267 3.21180307 6.546875 6.9375 C6.81098044 10.81104649 6.19708562 12.69483516 4.0625 16 C0.48008358 18.33953725 -1.69676183 18.74316342 -5.90625 18.4765625 C-8 18 -8 18 -10.5625 16 C-12.40251016 12.15997879 -12.96007379 9.17716314 -12 5 C-8.63394339 0.10391766 -5.83719613 -1.0240695 0 0 Z " fill="#1A1A1C" transform="translate(145,51)"/>
<path d="M0 0 C2.64 0 5.28 0 8 0 C8 10.89 8 21.78 8 33 C5.36 33 2.72 33 0 33 C0 22.11 0 11.22 0 0 Z " fill="#2B2B2C" transform="translate(182,160)"/>
<path d="M0 0 C2 2 2 2 2.3125 4.4375 C1.93333235 7.54667476 1.42625601 8.09402394 -1 10 C-7.08047444 12.16016855 -13.54276893 13.70187294 -20 13 C-22 11 -22 11 -22.25 8.5625 C-22 6 -22 6 -20 3 C-17.53715635 2.10230078 -15.21568418 1.3862637 -12.6875 0.75 C-12.02298828 0.564375 -11.35847656 0.37875 -10.67382812 0.1875 C-6.80274145 -0.82334756 -3.82277013 -1.30907247 0 0 Z " fill="#EEEEEE" transform="translate(83,100)"/>
<path d="M0 0 C0.6875 2.8125 0.6875 2.8125 1 6 C-1.13460395 8.89341665 -3.48827977 9.71471866 -6.875 10.6875 C-7.71804687 10.93886719 -8.56109375 11.19023438 -9.4296875 11.44921875 C-12.05960195 12.01277185 -14.31939311 12.18266486 -17 12 C-18.8125 10.8125 -18.8125 10.8125 -20 9 C-20.5 6.5625 -20.5 6.5625 -20 4 C-17.20334165 0.75226772 -14.69411712 -0.26115244 -10.5625 -0.8125 C-6.89937448 -1.08202763 -3.59633764 -0.82992407 0 0 Z " fill="#242425" transform="translate(244,69)"/>
<path d="M0 0 C0.99 0.66 1.98 1.32 3 2 C3.47730962 5.72301503 3.1387261 6.79191085 1 10 C-2.52059568 11.17353189 -5.306493 11.20146402 -9 11 C-11 9 -11 9 -11.3125 6.0625 C-11 3 -11 3 -10 1.125 C-6.85103686 -0.64629177 -3.52961671 -0.54794453 0 0 Z " fill="#1B1B1C" transform="translate(25,83)"/>
<path d="M0 0 C0 0.33 0 0.66 0 1 C-3.80778697 2.00000951 -7.61638973 2.99684236 -11.42578125 3.99072266 C-13.35981689 4.49603307 -15.29319287 5.00386608 -17.2265625 5.51171875 C-19.04414063 5.98544922 -19.04414063 5.98544922 -20.8984375 6.46875 C-22.01911621 6.76201172 -23.13979492 7.05527344 -24.29443359 7.35742188 C-27 8 -27 8 -29 8 C-29 8.66 -29 9.32 -29 10 C-30.423125 10.928125 -30.423125 10.928125 -31.875 11.875 C-34.82241872 13.87924473 -35.83853833 14.74790731 -37 18 C-37.66 18 -38.32 18 -39 18 C-39 18.66 -39 19.32 -39 20 C-35.535 19.505 -35.535 19.505 -32 19 C-35.28491373 21.18994248 -36.83095639 21.35277339 -40.6875 21.625 C-42.17830078 21.73714844 -42.17830078 21.73714844 -43.69921875 21.8515625 C-44.45847656 21.90054688 -45.21773437 21.94953125 -46 22 C-44.30865575 18.23970905 -42.26737593 16.5133661 -39 14 C-38.67 13.34 -38.34 12.68 -38 12 C-39.32 11.34 -40.64 10.68 -42 10 C-32.23539691 6.79332011 -22.47844505 4.04816326 -12.44921875 1.796875 C-4.26165159 -0.09470337 -4.26165159 -0.09470337 0 0 Z " fill="#5E5E5F" transform="translate(246,23)"/>
<path d="M0 0 C1.32 0 2.64 0 4 0 C5.1482685 2.296537 5.11561175 3.58313167 5.09765625 6.1328125 C5.09282227 7.34130859 5.09282227 7.34130859 5.08789062 8.57421875 C5.07951172 9.41597656 5.07113281 10.25773438 5.0625 11.125 C5.05798828 11.97449219 5.05347656 12.82398438 5.04882812 13.69921875 C5.03702874 15.79950909 5.01909306 17.8997633 5 20 C3.35 20 1.7 20 0 20 C0 13.4 0 6.8 0 0 Z " fill="#09090B" transform="translate(75,171)"/>
<path d="M0 0 C1.670625 0.061875 1.670625 0.061875 3.375 0.125 C4.75625018 2.88750036 4.56579306 5.07231099 4.375 8.125 C2.375 10.125 2.375 10.125 -0.625 10.375 C-3.625 10.125 -3.625 10.125 -5.625 8.125 C-5.875 5.125 -5.875 5.125 -5.625 2.125 C-3.625 0.125 -3.625 0.125 0 0 Z " fill="#232324" transform="translate(142.625,82.875)"/>
<path d="M0 0 C2.70163937 4.05245906 2.41398656 7.84370251 2.56640625 12.55078125 C2.73213231 16.20396003 2.92011356 17.88017034 5 21 C4.9375 23 4.9375 23 4 25 C1.4375 26.75 1.4375 26.75 -1 28 C-0.83628906 27.07058594 -0.67257813 26.14117187 -0.50390625 25.18359375 C0.21479176 20.15270771 0.10756313 15.13383491 0.0625 10.0625 C0.05798828 9.09248047 0.05347656 8.12246094 0.04882812 7.12304688 C0.0371315 4.7486324 0.02074086 2.37434979 0 0 Z " fill="#3C3C3E" transform="translate(187,76)"/>
<path d="M0 0 C0.66 0.33 1.32 0.66 2 1 C-1.61328125 5.6875 -1.61328125 5.6875 -3 7 C-3.99 7 -4.98 7 -6 7 C-6.66 8.32 -7.32 9.64 -8 11 C-8.66 11 -9.32 11 -10 11 C-10 10.01 -10 9.02 -10 8 C-10.99 7.34 -11.98 6.68 -13 6 C-12.14535156 5.65066406 -11.29070312 5.30132812 -10.41015625 4.94140625 C-9.30542969 4.48636719 -8.20070312 4.03132812 -7.0625 3.5625 C-5.96035156 3.11003906 -4.85820312 2.65757812 -3.72265625 2.19140625 C-1.13431084 1.25575392 -1.13431084 1.25575392 0 0 Z " fill="#3C3C3C" transform="translate(166,127)"/>
<path d="M0 0 C1.64574566 -0.02688151 3.29161413 -0.04634123 4.9375 -0.0625 C5.85402344 -0.07410156 6.77054688 -0.08570313 7.71484375 -0.09765625 C10 0 10 0 11 1 C11 2.65 11 4.3 11 6 C7.37 6 3.74 6 0 6 C0 5.67 0 5.34 0 5 C3.465 4.505 3.465 4.505 7 4 C7 3.01 7 2.02 7 1 C4.69 1 2.38 1 0 1 C0 0.67 0 0.34 0 0 Z " fill="#484849" transform="translate(204,173)"/>
<path d="M0 0 C0.66 0 1.32 0 2 0 C2 0.66 2 1.32 2 2 C2.60328125 1.84402344 3.2065625 1.68804687 3.828125 1.52734375 C4.62734375 1.33269531 5.4265625 1.13804688 6.25 0.9375 C7.03890625 0.74027344 7.8278125 0.54304688 8.640625 0.33984375 C11.12825747 -0.01847417 12.61334893 0.32847917 15 1 C11.92090233 1.86996586 8.83621369 2.71815852 5.75 3.5625 C4.87730469 3.80935547 4.00460938 4.05621094 3.10546875 4.31054688 C2.26113281 4.53935547 1.41679688 4.76816406 0.546875 5.00390625 C-0.22817383 5.21861572 -1.00322266 5.4333252 -1.80175781 5.65454102 C-4.19024018 6.0298967 -5.720964 5.74681558 -8 5 C-7.236875 4.731875 -6.47375 4.46375 -5.6875 4.1875 C-3.09503074 3.04199033 -1.91184456 2.00288478 0 0 Z " fill="#616163" transform="translate(80,117)"/>
<path d="M0 0 C-3.75 3 -3.75 3 -6 3 C-6 3.66 -6 4.32 -6 5 C-6.66 5 -7.32 5 -8 5 C-8.33 5.66 -8.66 6.32 -9 7 C-9 5.68 -9 4.36 -9 3 C-10.98 3 -12.96 3 -15 3 C-14.67 2.34 -14.34 1.68 -14 1 C-11.34765625 0.33203125 -11.34765625 0.33203125 -8.0625 -0.1875 C-6.98097656 -0.36667969 -5.89945313 -0.54585938 -4.78515625 -0.73046875 C-2 -1 -2 -1 0 0 Z " fill="#2C2C2D" transform="translate(59,96)"/>
<path d="M0 0 C0.33 0.99 0.66 1.98 1 3 C-3.1509434 7.88346282 -3.1509434 7.88346282 -7.1875 8.4375 C-10 8 -10 8 -12 6 C-10.35 5.34 -8.7 4.68 -7 4 C-7 4.99 -7 5.98 -7 7 C-6.5875 6.401875 -6.175 5.80375 -5.75 5.1875 C-4.0092701 3.01158763 -2.28304179 1.57451158 0 0 Z " fill="#38383A" transform="translate(125,76)"/>
<path d="M0 0 C0.66 0.33 1.32 0.66 2 1 C-2.66666667 5.66666667 -7.33333333 10.33333333 -12 15 C-12 12 -12 12 -10 9 C-9.34 9 -8.68 9 -8 9 C-7.67 8.01 -7.34 7.02 -7 6 C-6.34 6 -5.68 6 -5 6 C-5 5.34 -5 4.68 -5 4 C-3.37373596 2.61767557 -1.7074998 1.28062485 0 0 Z " fill="#3E3E3E" transform="translate(109,41)"/>
<path d="M0 0 C0 0.66 0 1.32 0 2 C-5.29411765 6 -5.29411765 6 -9 6 C-9 5.34 -9 4.68 -9 4 C-10.32 3.34 -11.64 2.68 -13 2 C-8.46298506 0.54815522 -4.81938524 -0.23509196 0 0 Z " fill="#232323" transform="translate(217,31)"/>
<path d="M0 0 C0.33 0 0.66 0 1 0 C1.25 7.625 1.25 7.625 -1 11 C-1.66 11 -2.32 11 -3 11 C-3 11.66 -3 12.32 -3 13 C-5.70879335 14.35439668 -8.00933268 14.06501451 -11 14 C-11 13.67 -11 13.34 -11 13 C-9.35 13 -7.7 13 -6 13 C-5.67 11.68 -5.34 10.36 -5 9 C-4.34 9 -3.68 9 -3 9 C-3 8.34 -3 7.68 -3 7 C-2.34 7 -1.68 7 -1 7 C-0.67 4.69 -0.34 2.38 0 0 Z " fill="#3F3F41" transform="translate(174,70)"/>
<path d="M0 0 C0.66 0 1.32 0 2 0 C1.68393083 2.92363987 1.49002762 4.53719613 -0.6875 6.59375 C-3.40493124 8.24624197 -5.61626713 8.70251753 -8.75 9.1875 C-9.73484375 9.34605469 -10.7196875 9.50460938 -11.734375 9.66796875 C-12.48203125 9.77753906 -13.2296875 9.88710937 -14 10 C-13.67 9.34 -13.34 8.68 -13 8 C-10.35139573 7.40644386 -7.70802678 7.25790731 -5 7 C-5.33 5.68 -5.66 4.36 -6 3 C-5.34 3.33 -4.68 3.66 -4 4 C-4 4.66 -4 5.32 -4 6 C-3.34 6 -2.68 6 -2 6 C-1.34 4.02 -0.68 2.04 0 0 Z " fill="#424244" transform="translate(252,90)"/>
<path d="M0 0 C3.63 0 7.26 0 11 0 C9.68 0.33 8.36 0.66 7 1 C7 2.65 7 4.3 7 6 C4.69 6.33 2.38 6.66 0 7 C1 4 1 4 4 2 C2.68 1.34 1.36 0.68 0 0 Z " fill="#373737" transform="translate(126,160)"/>
<path d="M0 0 C0.66 0.33 1.32 0.66 2 1 C-1.96 4.96 -5.92 8.92 -10 13 C-10.66 12.67 -11.32 12.34 -12 12 C-8.27653164 7.57905197 -4.70478962 3.42166518 0 0 Z " fill="#C9C9CA" transform="translate(115,49)"/>
<path d="M0 0 C1.3921875 0.3403125 1.3921875 0.3403125 2.8125 0.6875 C-0.06837546 3.08822955 -2.75154834 5.16041037 -6.1875 6.6875 C-6.1875 2.6875 -6.1875 2.6875 -5.0625 0.875 C-3.1875 -0.3125 -3.1875 -0.3125 0 0 Z " fill="#252527" transform="translate(195.1875,99.3125)"/>
<path d="M0 0 C-0.33 2.31 -0.66 4.62 -1 7 C-1.33 6.34 -1.66 5.68 -2 5 C-3.32 5 -4.64 5 -6 5 C-5.625 3.0625 -5.625 3.0625 -5 1 C-3 0 -3 0 0 0 Z " fill="#19191B" transform="translate(81,166)"/>
<path d="M0 0 C-0.4640625 0.7425 -0.4640625 0.7425 -0.9375 1.5 C-2.41644382 4.97986781 -2.62402851 8.24028509 -3 12 C-3.33 12 -3.66 12 -4 12 C-5.74736842 6.75789474 -5.74736842 6.75789474 -6 4 C-3.2 0 -3.2 0 0 0 Z " fill="#222222" transform="translate(126,167)"/>
<path d="M0 0 C-0.9075 0.391875 -1.815 0.78375 -2.75 1.1875 C-6.14118394 3.0787372 -7.79032837 4.8554673 -10 8 C-10.36585366 3.48780488 -10.36585366 3.48780488 -8.6875 1.25 C-5.56843563 -1.06041805 -3.55669373 -1.1038015 0 0 Z " fill="#BDBDBE" transform="translate(207,45)"/>
<path d="M0 0 C-0.33 1.32 -0.66 2.64 -1 4 C-2.32 4 -3.64 4 -5 4 C-5.33 4.66 -5.66 5.32 -6 6 C-6.33 4.68 -6.66 3.36 -7 2 C-4 0 -4 0 0 0 Z " fill="#2B2B2D" transform="translate(163,180)"/>
<path d="M0 0 C1.32 0.66 2.64 1.32 4 2 C3.01 2.495 3.01 2.495 2 3 C2 3.66 2 4.32 2 5 C0.68 5.33 -0.64 5.66 -2 6 C-2 5.01 -2 4.02 -2 3 C-1.34 3 -0.68 3 0 3 C0 2.01 0 1.02 0 0 Z " fill="#29292A" transform="translate(250,87)"/>
<path d="M0 0 C0.99 0.33 1.98 0.66 3 1 C3.33 2.32 3.66 3.64 4 5 C-0.455 4.01 -0.455 4.01 -5 3 C-3.68 2.34 -2.36 1.68 -1 1 C-0.67 0.67 -0.34 0.34 0 0 Z " fill="#404042" transform="translate(156,40)"/>
<path d="M0 0 C-5.29230769 3.07692308 -5.29230769 3.07692308 -8.875 2.6875 C-9.57625 2.460625 -10.2775 2.23375 -11 2 C-7.00042393 -0.06874624 -4.43559483 -1.37656391 0 0 Z " fill="#696969" transform="translate(215,32)"/>
</svg>
